<svg width="200" height="40" viewBox="0 0 200 40" fill="none" xmlns="http://www.w3.org/2000/svg">
<path d="M158.514 11.0859C155.126 11.0859 152.664 13.5678 152.664 16.9796C152.664 20.3915 155.126 22.8734 158.514 22.8734C161.903 22.8734 164.364 20.394 164.364 16.9796C164.364 13.5653 161.9 11.0859 158.514 11.0859ZM158.507 12.9611C160.512 12.9611 161.801 14.5041 161.801 16.8894C161.801 19.2747 160.512 20.8152 158.507 20.8152C156.502 20.8152 155.21 19.2747 155.21 16.8894C155.21 14.5041 156.504 12.9611 158.507 12.9611Z" fill="#1C1C1C"/>
<path d="M188.515 20.6039C192.173 20.6039 194.831 17.8701 194.831 14.1085C194.831 10.3469 192.173 7.61816 188.515 7.61816C184.856 7.61816 182.195 10.3457 182.195 14.1085C182.195 17.8714 184.851 20.6039 188.515 20.6039ZM188.507 9.70014C190.772 9.70014 192.232 11.4286 192.232 14.1073C192.232 16.7859 190.772 18.5144 188.507 18.5144C186.242 18.5144 184.782 16.7846 184.782 14.1073C184.782 11.4299 186.244 9.70014 188.507 9.70014Z" fill="#1C1C1C"/>
<path d="M165.625 9.96195H160.046V6.7832L157.281 6.79323L157.284 9.96195H151.414L151.41 12.2746H165.625V9.96195Z" fill="#1C1C1C"/>
<path d="M171.17 7.62305H168.554V24.8705C167.794 25.2628 166.983 25.6501 166.201 25.8657C165.412 26.0851 164.102 26.2229 163.277 26.2229H159.924V21.7908H157.307V26.2229H151.18V28.4603H162.897C163.687 28.4603 165.002 28.33 165.878 28.0981C166.709 27.8825 167.611 27.5027 168.554 26.9875V33.1432H171.17V19.3077H175.214V17.1129H171.17V7.62305Z" fill="#1C1C1C"/>
<path d="M177.285 22.4844V24.7406H187.28V33.2026H190.007V24.7406H200V22.4844H177.285Z" fill="#1C1C1C"/>
<path d="M102.625 20.4421C105.614 20.4421 107.779 18.2485 107.779 15.224C107.779 12.1994 105.614 10.0059 102.625 10.0059C99.637 10.0059 97.4688 12.1981 97.4688 15.224C97.4688 18.2498 99.6394 20.4421 102.625 20.4421ZM102.62 11.6805C104.475 11.6805 105.675 13.073 105.675 15.2215C105.675 17.3699 104.475 18.7675 102.62 18.7675C100.765 18.7675 99.5657 17.3736 99.5657 15.2215C99.5657 13.0693 100.768 11.6805 102.62 11.6805Z" fill="#1C1C1C"/>
<path d="M93.5293 20.2707H91.4299V15.2482H87.7773V13.4244H91.4299V9.32812H93.5293V20.2707Z" fill="#1C1C1C"/>
<path d="M56.4023 21.2188V23.0212H64.3974V29.7923H66.5828V23.0212H74.5718V21.2188H56.4023Z" fill="#1C1C1C"/>
<path d="M93.5287 29.7434V21.2676H91.4318V23.6755H82.3943V21.2676H80.3047V29.7434H93.5287ZM91.4318 27.9397H82.3943V25.4328H91.4318V27.9397Z" fill="#1C1C1C"/>
<path d="M87.0008 19.717V10.335H84.9038V13.1991H79.428V10.335H77.3359V19.717H87.0008ZM84.9038 17.9146H79.428V14.9552H84.9038V17.9146Z" fill="#1C1C1C"/>
<path d="M53.2119 20.2707H51.1186V15.2482H47.4648V13.4244H51.1186V9.32812H53.2119V20.2707Z" fill="#1C1C1C"/>
<path d="M53.2123 29.7434V21.2676H51.1203V23.6755H42.0779V21.2676H39.9883V29.7434H53.2123ZM51.1203 27.9397H42.0779V25.4328H51.1203V27.9397Z" fill="#1C1C1C"/>
<path d="M46.6854 19.717V10.335H44.5884V13.1991H39.1102V10.335H37.0156V19.717H46.6866H46.6854ZM44.5884 17.9146H39.1089V14.9552H44.5884V17.9146Z" fill="#1C1C1C"/>
<path d="M72.247 10.2383H58.7344V18.8094H72.247V10.2383ZM60.8277 12.0382H70.1487V17.0081H60.8277V12.0382Z" fill="#1C1C1C"/>
<path d="M113.878 9.32812H111.781V23.8192H113.878V9.32812Z" fill="#1C1C1C"/>
<path d="M102.809 22.4043H100.648V29.6129H114.511V27.8104H102.809V22.4043Z" fill="#1C1C1C"/>
<path d="M129.988 19.6877C132.476 19.6877 134.282 17.8301 134.282 15.273C134.282 12.716 132.476 10.8584 129.988 10.8584C127.501 10.8584 125.688 12.7122 125.688 15.273C125.688 17.8338 127.497 19.6877 129.988 19.6877ZM129.983 12.2735C131.521 12.2735 132.516 13.4468 132.516 15.273C132.516 17.0993 131.521 18.265 129.983 18.265C128.446 18.265 127.453 17.0868 127.453 15.273C127.453 13.4593 128.445 12.2735 129.983 12.2735Z" fill="#161519"/>
<path d="M137.796 20.9639H122.355V22.4981H125.953V28.2075H127.729V22.4981H132.414V28.2075H134.191V22.4981H137.796V20.9639Z" fill="#161519"/>
<path d="M119.393 19.5173C119.393 16.1794 120.368 13.141 121.969 10.8447H120.881C118.954 13.022 117.75 16.1042 117.75 19.5173C117.75 22.9305 118.97 26.0353 120.909 28.2162H121.992C120.376 25.9199 119.393 22.8653 119.393 19.5173Z" fill="#161519"/>
<path d="M140.75 19.5173C140.75 16.1794 139.774 13.141 138.169 10.8447H139.262C141.183 13.022 142.388 16.1042 142.388 19.5173C142.388 22.9305 141.177 26.0353 139.236 28.2162H138.148C139.767 25.9199 140.75 22.8653 140.75 19.5173Z" fill="#161519"/>
<path d="M129.987 11.0488C127.605 11.0488 125.875 12.8237 125.875 15.2729C125.875 17.7222 127.605 19.492 129.987 19.492C132.369 19.492 134.091 17.7159 134.091 15.2729C134.091 12.83 132.369 11.0488 129.987 11.0488ZM129.982 18.4592C128.328 18.4592 127.261 17.2058 127.261 15.2729C127.261 13.3401 128.328 12.0767 129.982 12.0767C131.636 12.0767 132.707 13.3301 132.707 15.2729C132.707 17.2158 131.636 18.4592 129.982 18.4592Z" fill="#1C1C1C"/>
<path d="M132.597 28.0191H134.005V22.3022H137.608V21.1553H122.539V22.3022H126.14V28.0191H127.541V22.3022H132.597V28.0191Z" fill="#1C1C1C"/>
<path d="M120.971 28.075H121.72C120.123 25.6972 119.251 22.6676 119.251 19.519C119.251 16.3703 120.12 13.3645 121.699 10.9893H120.943C118.978 13.2442 117.891 16.265 117.891 19.519C117.891 22.7729 118.988 25.8213 120.971 28.075Z" fill="#1C1C1C"/>
<path d="M138.422 28.075H139.168C141.154 25.82 142.241 22.7854 142.241 19.519C142.241 16.2525 141.161 13.2442 139.199 10.9893H138.44C140.02 13.3645 140.888 16.3791 140.888 19.519C140.888 22.6589 140.017 25.6972 138.422 28.075Z" fill="#1C1C1C"/>
<path d="M24.0174 0.133789H0.132812V39.8643H24.0174V0.133789Z" fill="#78726B"/>
<path d="M5.0854 0.133789H4.79688V6.80714H5.0854V0.133789Z" fill="white"/>
<path d="M5.21778 6.94284H4.66406V0H5.21778V6.94284ZM4.92926 6.6721H4.95381V0.269491H4.92926V6.6721Z" fill="white"/>
<path d="M10.9775 26.5383H10.6878V6.95569H0.132812V6.66113H10.9775V26.5383Z" fill="white"/>
<path d="M11.1099 26.6733H10.5549V7.08944H0V6.52539H11.1099V26.6733ZM10.8189 26.4038H10.8447V6.79488H0.265193V6.81995H10.8189V26.4038Z" fill="white"/>
<path d="M14.9787 20.8271H0.132812V21.123H14.9787V20.8271Z" fill="white"/>
<path d="M15.1099 21.2589H0V20.6924H15.1099V21.2589ZM0.263966 20.9894H14.8459V20.9644H0.265193V20.9894H0.263966Z" fill="white"/>
<path d="M24.0159 26.5166H8.51562V26.8137H24.0159V26.5166Z" fill="white"/>
<path d="M24.1483 26.9474H8.38281V26.3809H24.1483V26.9474ZM8.64801 26.6779H23.8843V26.6503H8.64801V26.6779Z" fill="white"/>
<path d="M17.842 26.667H17.5547V39.8658H17.842V26.667Z" fill="white"/>
<path d="M17.9744 39.9998H17.4219V26.5303H17.9744V39.9998ZM17.6871 39.7303H17.7092V26.801H17.6871V39.7303Z" fill="white"/>
<path d="M5.11543 16.0421C3.75999 16.0421 2.65625 14.5091 2.65625 12.6214C2.65625 10.7337 3.76122 9.19824 5.11543 9.19824C6.46963 9.19824 7.57952 10.7337 7.57952 12.6214C7.57952 14.5091 6.47332 16.0421 5.11543 16.0421ZM5.11543 9.49531C3.92083 9.49531 2.94232 10.8954 2.94232 12.6214C2.94232 14.3474 3.9196 15.7475 5.11543 15.7475C6.31125 15.7475 7.291 14.3436 7.291 12.6214C7.291 10.8992 6.31371 9.49531 5.11543 9.49531Z" fill="white"/>
<path d="M5.11521 16.1768C3.68611 16.1768 2.52344 14.5812 2.52344 12.622C2.52344 10.6629 3.68611 9.06348 5.11521 9.06348C6.54431 9.06348 7.71067 10.6591 7.71067 12.622C7.71067 14.5849 6.54676 16.1768 5.11521 16.1768ZM5.11521 9.33297C3.83222 9.33297 2.7874 10.8083 2.7874 12.6208C2.7874 14.4332 3.83222 15.906 5.11521 15.906C6.39821 15.906 7.4467 14.432 7.4467 12.6208C7.4467 10.8095 6.40066 9.33297 5.11521 9.33297ZM5.11521 15.8822C3.84327 15.8822 2.81073 14.4195 2.81073 12.622C2.81073 10.8246 3.84449 9.36054 5.11521 9.36054C6.38593 9.36054 7.42215 10.8233 7.42215 12.622C7.42215 14.4207 6.38716 15.8822 5.11521 15.8822ZM5.11521 9.63004C3.98937 9.63004 3.0747 10.9712 3.0747 12.6208C3.0747 14.2703 3.9906 15.6115 5.11521 15.6115C6.23983 15.6115 7.15818 14.2703 7.15818 12.6208C7.15818 10.9712 6.24106 9.63004 5.11521 9.63004Z" fill="white"/>
<path d="M4.36362 21.1034L4.21875 20.849C5.84429 19.8901 4.92962 17.1588 4.92102 17.1287L5.19235 17.0322C5.23287 17.1513 6.19174 20.0242 4.3624 21.1034" fill="white"/>
<path d="M4.31531 21.2872L4.03906 20.7997L4.15324 20.7332C5.60321 19.8784 4.88498 17.4517 4.79781 17.1785L4.75852 17.0531L4.87761 17.0017L5.2754 16.8613L5.3196 16.9879C5.36257 17.1133 6.35459 20.0864 4.42949 21.2196L4.31531 21.2872ZM4.39879 20.8949L4.40984 20.915C5.81684 19.9611 5.2754 17.7651 5.10966 17.2048L5.0851 17.2135C5.25085 17.8002 5.75177 19.9686 4.39756 20.8949" fill="white"/>
<path d="M17.699 23.5431C16.168 23.5431 14.9219 22.341 14.9219 20.8657C14.9219 19.3904 16.168 18.1934 17.699 18.1934C19.23 18.1934 20.475 19.3879 20.475 20.8657C20.475 22.3435 19.23 23.5431 17.699 23.5431ZM17.699 18.4904C16.3289 18.4904 15.2129 19.5559 15.2129 20.8657C15.2129 22.1756 16.3289 23.2422 17.699 23.2422C19.0692 23.2422 20.184 22.1768 20.184 20.8657C20.184 19.5546 19.0704 18.4904 17.699 18.4904Z" fill="white"/>
<path d="M17.6988 23.6788C16.0954 23.6788 14.7891 22.4166 14.7891 20.8673C14.7891 19.318 16.0942 18.0596 17.6988 18.0596C19.3035 18.0596 20.6074 19.3193 20.6074 20.8673C20.6074 22.4153 19.3035 23.6788 17.6988 23.6788ZM17.6988 18.3303C16.2415 18.3303 15.0543 19.4672 15.0543 20.8673C15.0543 22.2674 16.2415 23.4093 17.6988 23.4093C19.1562 23.4093 20.3422 22.2686 20.3422 20.8673C20.3422 19.4659 19.1574 18.3303 17.6988 18.3303ZM17.6988 23.3792C16.255 23.3792 15.0788 22.2523 15.0788 20.8673C15.0788 19.4822 16.255 18.3566 17.6988 18.3566C19.1427 18.3566 20.3152 19.4822 20.3152 20.8673C20.3152 22.2523 19.1414 23.3792 17.6988 23.3792ZM17.6988 18.6261C16.4011 18.6261 15.3452 19.6314 15.3452 20.8673C15.3452 22.1032 16.4011 23.1072 17.6988 23.1072C18.9966 23.1072 20.0512 22.1019 20.0512 20.8673C20.0512 19.6326 18.9966 18.6261 17.6988 18.6261Z" fill="white"/>
</svg>
